<?xml version="1.0" encoding="UTF-8"?>
<svg 
	 version="1.1"
	 xmlns="http://www.w3.org/2000/svg"
	 xmlns:xlink="http://www.w3.org/1999/xlink"
	 width="33px"
	 height="39px"
	 viewBox="0 0 33 39">
	<title></title>
	<path
		  fill="rgba(242,190,26,1)" 
		  d="M33,15.3946 C33,5.0115 26.5312536,0 16.643402,0 C6.71547307,0 0,5.0115 0,15.3946 C0,23.2271 3.99647045,27.4534 9.55846522,29.8064 L31.3505636,39 C31.3505636,39 31.515883,30.7892 17.6015029,30.7892 L17.6015029,30.0677 C28.739269,30.0677 33,25.0692 33,15.3946 Z M16.7229171,25.7302905 C8.5357311,25.7302905 5.73913043,23.9679581 5.73913043,15.4114049 C5.73913043,6.98631073 8.5357311,5.17842324 16.7229171,5.17842324 C24.6637121,5.17842324 27.4202899,6.98631073 27.4202899,15.4114049 C27.4202899,23.9614502 24.6637121,25.7237826 16.7229171,25.7237826 L16.7229171,25.7302905 Z"></path>
</svg>