<?xml version="1.0" encoding="UTF-8"?>
<svg width="102px" height="99px" viewBox="0 0 102 99" version="1.1" xmlns="http://www.w3.org/2000/svg" xmlns:xlink="http://www.w3.org/1999/xlink">
    <title>Group 31</title>
    <g id="Page-1" stroke="none" stroke-width="1" fill="none" fill-rule="evenodd">
        <g id="Artboard" transform="translate(-21.000000, -23.000000)">
            <g id="Group-31" transform="translate(22.000000, 24.000000)">
                <path d="M98.8117797,60.8169335 L92.6236441,50.4122074 C92.0435593,49.4367248 91.7372034,48.3237552 91.7372034,47.1896987 L91.7372034,7.59134652 C91.7372034,3.39883783 88.3223729,4.2173913e-05 84.1100847,4.2173913e-05 L14.2151695,4.2173913e-05 C9.99144068,4.2173913e-05 6.56771186,3.40769435 6.56771186,7.61159 L6.56771186,47.354177 C6.56771186,48.3849074 6.32661017,49.4017204 5.86347458,50.3236422 L0.536779661,60.9270074 C0.183813559,61.6300465 -8.47457627e-05,62.4047813 -8.47457627e-05,63.1904813 L-8.47457627e-05,89.4087378 C-8.47457627e-05,93.6012465 3.41474576,97.0000422 7.6270339,97.0000422 L92.0461017,97.0000422 C96.2757627,97.0000422 99.6973729,93.5742552 99.6729282,89.3644552 L99.520678,63.365503 C99.5155932,62.4684639 99.270678,61.5887161 98.8117797,60.8169335 Z" id="Stroke-1" stroke="#FFFFFF" stroke-width="2"></path>
                <path d="M85.9505508,53.35 L13.6255508,53.35 C12.1848729,53.35 11.0170763,52.1872652 11.0170763,50.7537739 L11.0170763,7.02448696 C11.0170763,5.59099565 12.1848729,4.42826087 13.6255508,4.42826087 L85.9505508,4.42826087 C87.3912288,4.42826087 88.5594492,5.59099565 88.5594492,7.02448696 L88.5594492,50.7537739 C88.5594492,52.1872652 87.3912288,53.35 85.9505508,53.35 Z" id="Stroke-3" stroke="#FFFFFF" stroke-width="2"></path>
                <path d="M11.0169492,97 L11.0169492,61.0070957 C11.0169492,59.5736043 12.1847458,58.4108696 13.6258475,58.4108696 L85.9504237,58.4108696 C87.3915254,58.4108696 88.559322,59.5736043 88.559322,61.0070957 L88.559322,97" id="Stroke-5" stroke="#FFFFFF" stroke-width="2"></path>
                <path d="M75.6355932,48.4579948 L44.7033898,48.4579948 C42.9483051,48.4579948 41.5254237,47.0417948 41.5254237,45.2949513 C41.5254237,43.5476861 42.9483051,42.1319078 44.7033898,42.1319078 L75.6355932,42.1319078 C77.390678,42.1319078 78.8135593,43.5476861 78.8135593,45.2949513 C78.8135593,47.0417948 77.390678,48.4579948 75.6355932,48.4579948 Z" id="Stroke-7" stroke="#FFFFFF" stroke-width="2"></path>
                <path d="M78.3898305,31.4195652 L48.3050847,31.4195652 C46.1987288,31.4195652 44.4915254,29.7203783 44.4915254,27.623913 C44.4915254,25.5274478 46.1987288,23.8282609 48.3050847,23.8282609 L78.3898305,23.8282609 C80.4961864,23.8282609 82.2033898,25.5274478 82.2033898,27.623913 C82.2033898,29.7203783 80.4961864,31.4195652 78.3898305,31.4195652 Z" id="Stroke-9" stroke="#FFFFFF" stroke-width="2"></path>
                <path d="M49.1525424,14.1282609 C49.1525424,17.3891478 46.4966102,20.0326087 43.220339,20.0326087 C39.9440678,20.0326087 37.2881356,17.3891478 37.2881356,14.1282609 C37.2881356,10.8673739 39.9440678,8.22391304 43.220339,8.22391304 C46.4966102,8.22391304 49.1525424,10.8673739 49.1525424,14.1282609" id="Fill-11" fill="#FFFFFF"></path>
                <path d="M81.3559322,14.1282609 C81.3559322,17.3891478 78.7,20.0326087 75.4237288,20.0326087 C72.1474576,20.0326087 69.4915254,17.3891478 69.4915254,14.1282609 C69.4915254,10.8673739 72.1474576,8.22391304 75.4237288,8.22391304 C78.7,8.22391304 81.3559322,10.8673739 81.3559322,14.1282609" id="Fill-13" fill="#FFFFFF"></path>
                <path d="M62.2881356,14.1282609 C62.2881356,15.9915043 60.770339,17.5021739 58.8983051,17.5021739 C57.0262712,17.5021739 55.5084746,15.9915043 55.5084746,14.1282609 C55.5084746,12.2650174 57.0262712,10.7543478 58.8983051,10.7543478 C60.770339,10.7543478 62.2881356,12.2650174 62.2881356,14.1282609 Z" id="Stroke-15" stroke="#FFFFFF" stroke-width="2"></path>
                <path d="M60.5932203,14.1282609 C60.5932203,15.0598826 59.834322,15.8152174 58.8983051,15.8152174 C57.9622881,15.8152174 57.2033898,15.0598826 57.2033898,14.1282609 C57.2033898,13.1966391 57.9622881,12.4413043 58.8983051,12.4413043 C59.834322,12.4413043 60.5932203,13.1966391 60.5932203,14.1282609" id="Fill-17" fill="#FFFFFF"></path>
                <path d="M80.5084746,27.623913 C80.5084746,28.7887565 79.5597458,29.7326087 78.3898305,29.7326087 C77.2199153,29.7326087 76.2711864,28.7887565 76.2711864,27.623913 C76.2711864,26.4590696 77.2199153,25.5152174 78.3898305,25.5152174 C79.5597458,25.5152174 80.5084746,26.4590696 80.5084746,27.623913" id="Fill-19" fill="#FFFFFF"></path>
                <path d="M50.4237288,27.623913 C50.4237288,28.7887565 49.475,29.7326087 48.3050847,29.7326087 C47.1351695,29.7326087 46.1864407,28.7887565 46.1864407,27.623913 C46.1864407,26.4590696 47.1351695,25.5152174 48.3050847,25.5152174 C49.475,25.5152174 50.4237288,26.4590696 50.4237288,27.623913" id="Fill-21" fill="#FFFFFF"></path>
                <path d="M77.622839,45.2949513 C77.622839,46.4361774 76.693178,47.3610513 75.5465678,47.3610513 C74.3999576,47.3610513 73.4702966,46.4361774 73.4702966,45.2949513 C73.4702966,44.1533035 74.3999576,43.2284296 75.5465678,43.2284296 C76.693178,43.2284296 77.622839,44.1533035 77.622839,45.2949513" id="Fill-23" fill="#FFFFFF"></path>
                <path d="M46.8686017,45.2949513 C46.8686017,46.4361774 45.9389407,47.3610513 44.7923305,47.3610513 C43.6457203,47.3610513 42.7160593,46.4361774 42.7160593,45.2949513 C42.7160593,44.1533035 43.6457203,43.2284296 44.7923305,43.2284296 C45.9389407,43.2284296 46.8686017,44.1533035 46.8686017,45.2949513" id="Fill-25" fill="#FFFFFF"></path>
                <path d="M69.3092373,45.2949513 C69.3092373,46.4361774 68.3795763,47.3610513 67.2329661,47.3610513 C66.0863559,47.3610513 65.1566949,46.4361774 65.1566949,45.2949513 C65.1566949,44.1533035 66.0863559,43.2284296 67.2329661,43.2284296 C68.3795763,43.2284296 69.3092373,44.1533035 69.3092373,45.2949513" id="Fill-27" fill="#FFFFFF"></path>
                <path d="M53.1144492,47.36122 C51.967839,47.36122 51.038178,46.4363461 51.038178,45.29512 C51.038178,44.1534722 51.967839,43.2281765 53.1144492,43.2281765 L57.2669915,43.2281765 C58.4136017,43.2281765 59.3432627,44.1534722 59.3432627,45.29512 C59.3432627,46.4363461 58.4136017,47.36122 57.2669915,47.36122 L53.1144492,47.36122 Z" id="Fill-29" fill="#FFFFFF"></path>
            </g>
        </g>
    </g>
</svg>