<?xml version="1.0" encoding="UTF-8"?>
<svg width="259px" height="67px" viewBox="0 0 259 67" version="1.1" xmlns="http://www.w3.org/2000/svg" xmlns:xlink="http://www.w3.org/1999/xlink">
    <title>quivr  logo</title>
    <g id="QUIVR---User-Flow" stroke="none" stroke-width="1" fill="none" fill-rule="evenodd">
        <g id="sign-in" transform="translate(-383.000000, -282.000000)" fill="#FFFFFF" fill-rule="nonzero">
            <g id="Group" transform="translate(383.000000, 156.000000)">
                <g transform="translate(0.000000, 126.000000)" id="quivr--logo">
                    <path d="M57.4630225,26.4471333 C57.4630225,8.6095 46.1989703,0 28.9812177,0 C11.6936782,0 0,8.6095 0,26.4471333 C0,39.9029667 6.95906884,47.1635333 16.644191,51.2058667 L54.5908528,67 C54.5908528,67 54.878724,52.8942667 30.6495623,52.8942667 L30.6495623,51.6547667 C50.0437959,51.6547667 57.4630225,43.0676 57.4630225,26.4471333 Z M29.1196776,44.2033195 C14.8633002,44.2033195 9.99356913,41.1757229 9.99356913,26.4760032 C9.99356913,12.0021236 14.8633002,8.89626556 29.1196776,8.89626556 C42.9470134,8.89626556 47.7470525,12.0021236 47.7470525,26.4760032 C47.7470525,41.1645427 42.9470134,44.1921393 29.1196776,44.1921393 L29.1196776,44.2033195 Z" id="Shape"></path>
                    <path d="M107.059611,32.3257778 C107.059611,40.4297 102.838754,44.0430698 91.3630248,44.0430698 C79.9553032,44.0430698 75.5940435,40.5944501 75.5940435,32.3257778 L75.5940435,0.834024896 L66.0685959,0.834024896 L66.0685959,31.2259597 C66.0685959,47.4248989 75.9209186,52.8215768 91.3630248,52.8215768 C106.662534,52.8215768 116.59164,47.4159935 116.59164,31.2259597 L116.59164,0.834024896 L107.059611,0.834024896 L107.059611,32.3257778 Z" id="Path"></path>
                    <rect id="Rectangle" x="128.528403" y="1.1120332" width="9.71596999" height="51.153527"></rect>
                    <path d="M251.98535,39.6171242 C249.823961,35.7252978 246.823006,32.5754063 242.318285,32.5754063 L242.318285,31.4780534 C250.428974,31.1826123 258.063983,28.5902827 258.063983,16.3105928 C258.063983,5.83464907 251.950277,1.1120332 240.685187,1.1120332 L211.530547,1.1120332 L211.530547,52.2588961 L220.976212,52.2588961 L220.976212,31.5069311 L233.394335,31.5069311 C236.389254,31.5040885 239.112037,33.2674855 240.367335,36.0229603 L245.233749,46.7121549 C246.771798,50.0935578 250.108621,52.2611214 253.782854,52.2655602 L259,52.2655602 L251.98535,39.6171242 Z M220.968917,23.3526971 L220.968917,9.45228216 L240.169409,9.45228216 C245.751101,9.45228216 248.173633,10.5761838 248.173633,16.3283121 C248.173633,22.1726004 245.751101,23.3526971 240.169409,23.3526971 L220.968917,23.3526971 Z" id="Shape"></path>
                    <path d="M175.922773,45.7275236 L175.786998,47.358145 L174.619767,47.358145 L174.486182,45.7475176 C174.273366,43.2044664 173.656608,40.7130534 172.659784,38.3697332 L156.822242,1.1120332 L146.017149,1.1120332 L169.24788,52.2655602 L181.224583,52.2655602 L204.312969,1.1120332 L193.505686,1.1120332 L177.738222,38.3852841 C176.749202,40.7182179 176.136236,43.1972455 175.922773,45.7275236 L175.922773,45.7275236 Z" id="Path"></path>
                </g>
            </g>
        </g>
    </g>
</svg>